<svg xmlns="http://www.w3.org/2000/svg" version="1.1" xmlns:xlink="http://www.w3.org/1999/xlink" xmlns:svgjs="http://svgjs.dev/svgjs" width="1500" height="1687" viewBox="0 0 1500 1687"><g transform="matrix(1,0,0,1,0.00011015625000254659,0)"><svg viewBox="0 0 320 360" data-background-color="#ffffff" preserveAspectRatio="xMidYMid meet" height="1687" width="1500" xmlns="http://www.w3.org/2000/svg" xmlns:xlink="http://www.w3.org/1999/xlink"><g id="tight-bounds" transform="matrix(1,0,0,1,0.000023499999997511622,0)"><svg viewBox="0 0 320 360" height="360" width="320"><g><svg></svg></g><g><svg viewBox="0 0 320 360" height="360" width="320"><g><path transform="translate(-74.99272,-51.79039) scale(4.65793,4.65793)" d="M20.6 59.9l0.8 1-0.4-1.3c-0.1-0.6-0.8 0.1-0.4 0.3M21.5 59.3c0.3 0.5 0.6 1 0.6 1.5 0 0.7 0.6 1 1.1 1.2-0.7-0.8-1.1-3-1.7-2.7M59.9 16.9c1.7 0 3.3-0.2 5.1 0.2 4.4 1.1 8.1 3.3 10.6 6.4l7 11.2c0.3 2.8 0.9 5.9 0.8 9.3 0.7 0 0.6-1 1.4-1.2-0.8 2-1.2 4.5-1.4 7.4-0.5-1.6 0-4 0.1-5.3-0.7 1.1-1.1 0.3-1.1-0.2 0.1-0.8-0.3-0.7-0.6-1-1.1-1-1.8-2.1-2.6-3.8 0.5-1.3 0.6-3.2-1-4.2-0.5-0.3-1.1-0.8-1.4-1.6-0.4-1.1-1.1-2.4-0.9-4.1 0.1-0.5-1.5 1.1-2.4 0.4-3.9-2.7-7.8-5.8-12.5-8.4-2.5 0-4.3-0.9-5.2-2-0.8-1-0.2-2.3 1-2.4 0.7 0 1.5-0.2 2.1 0.2 0.1-0.4 0.5-0.9 1-0.9M50 14.6l0.2 0.1c1 0.2 1.5 1.6 2.6 1.1 0 0.7 0.1 1.4-0.1 1.9-0.3 0.8-1.2 0.8-1.9 0.8-6.7-0.4-10.6 2.4-14.7 4.8-1.1 0.7-2.3 1.2-3.2 2.1-4.3 4-9 7.7-10.1 15.1l-0.9 8.2c-0.1 0.9-1.1 1.8-0.9 2.9l0.7 4.9c-0.7-0.7-1.1 0.2-0.9 0.6 0.1 0.3 0.5 1.3 1.1 0.4 0.8 1.5 1.6 4.4 2.7 5.7 3.4 4 7.8 7.6 11.4 11.2 0.9-0.2 1.6-0.2 1.8-0.8 0.3 0.6-0.3 1.2-0.8 1.3 1.6 1 3.4 1.9 5.8 2.1 3.1 0.2 6 0.7 8.7 1.4 1.4-0.4 2.8-0.6 4.3-0.7 0.5 0 0.8-0.8 1.4-1l0.1-1c0.6 0.9 0.5-0.3 0.1-0.9 0.7 0.6 0.9 1.1 1.2 1.5 0-0.3 0.8-1.4 0.8-0.1l0.2-1.3c0.3-0.2 0.4 1.1 0.7 0.2 0.3-0.9 0.9-0.2 1.5-0.5-0.2 0.4-0.1 1.2 0.6 0.7l0.8-0.7c0.5 1.2 1.3 0.7 1.7 0.5 4.4-2.8 8.8-6.1 13-9.4l-0.1 1.3 0.5-1.6c0.5 0.5 0.9 0.1 1.1-0.2 0.6-1 1.4-2 2.7-2.9-1.6 4.3-3.5 7.7-5.9 10.5l-1 1.2c0 0.7-0.2 1.6-1 1.7-0.4 0.1-1.2-0.2-1.8 0.4-0.3 0.4 0.7 1.2-0.1 0.6-0.7-0.5-1.4 0-2.2 0.2-0.6 0.2 0.4 0.8 0.6 1.2 0.2 0.4 0.4 0.8 0.3 1.3l-1.1-1.2c-1.3 0.7-2.1 2-3.2 3-0.5 0.4-0.3 1.1-0.3 1.7-0.7 0-1.5-0.2-1.9 0.2-0.3 0.4-0.2 1-0.2 1.6-1-0.1-1.1-1.6-2-1.3-0.9 0.2-1.9 0.3-2.7 0.8 0.6 1.2-1 0.5-0.8 0.7-1.5-0.9-2.8-1.6-4.4-1-3.4-1.1-7.6-0.6-10.7-0.2 0-0.5 0.1-1-0.1-1.1-0.2 0.5-0.8 0.3-0.7 0.3-1.9-1.3-3.8-2.1-5.8-3.2-1.8 0.2-3.5-0.7-4-1.2-1.4-1.3-3-0.6-4.3-0.9-2.8-0.7-3.8-3.6-4.1-5.6-0.2-1-1-1.4-1.3-1.3-1.3-4.2-3.3-8-4.9-11.9-0.4-1-0.3-2-0.3-3.1 0.5 0.2 1 0.1 0.9-0.6-0.5-3.3-1.7-5.8-3-8.2 0.7-3.4 0.8-7.4 2.4-10.4 1.4-2.7 4-4.1 5.8-6.4 0.6-0.8 0.6-1.9 1.2-2.6 2-2 4-4.1 6.2-5.9 1-0.8 2.2 0 3.7-0.3 0.5-1.8 2.5-3.4 4.4-2.9 0.8 0.2 2.4-1.9 2.9-2.1 0.8-0.3 0.4 0.8 0.4 1.5 1.9-1.5 4.5-2.3 6.9-3.2" fill="#6b7280" fill-rule="nonzero" stroke="none" stroke-width="1" stroke-linecap="butt" stroke-linejoin="miter" stroke-miterlimit="10" stroke-dasharray="" stroke-dashoffset="0" font-family="none" font-weight="none" font-size="none" text-anchor="none" style="mix-blend-mode: normal" data-fill-palette-color="tertiary"></path></g><g transform="matrix(1,0,0,1,64,118.13279888042516)"><svg viewBox="0 0 192 123.73440223914967" height="123.73440223914967" width="192"><g><svg viewBox="0 0 192 123.73440223914967" height="123.73440223914967" width="192"><g><svg viewBox="0 0 192 123.73440223914967" height="123.73440223914967" width="192"><g transform="matrix(1,0,0,1,0,73.34828742866026)"><svg viewBox="0 0 192 50.38611481048942" height="50.38611481048942" width="192"><g id="textblocktransform"><svg viewBox="0 0 192 50.38611481048942" height="50.38611481048942" width="192" id="textblock"><g><svg viewBox="0 0 192 30.22815210140093" height="30.22815210140093" width="192"><g transform="matrix(1,0,0,1,0,0)"><svg width="192" viewBox="0.7 -35.1 224.83 35.4" height="30.22815210140093" data-palette-color="#374f7d"><path d="M16.15 0.1L14.7 0.1Q13.85 0.1 13.35-0.13 12.85-0.35 12.7-0.7L12.7-0.7 0.85-33.6Q0.8-33.8 0.75-33.95 0.7-34.1 0.7-34.25L0.7-34.25Q0.7-34.65 1.23-34.88 1.75-35.1 2.85-35.1L2.85-35.1 3.25-35.1Q4-35.1 4.55-34.93 5.1-34.75 5.25-34.3L5.25-34.3 15.45-4.5 15.65-4.5 25.75-34.3Q25.9-34.75 26.45-34.93 27-35.1 27.75-35.1L27.75-35.1 28-35.1Q29.15-35.1 29.65-34.88 30.15-34.65 30.15-34.25L30.15-34.25Q30.15-34.1 30.13-33.95 30.1-33.8 30-33.55L30-33.55 18.15-0.7Q18-0.35 17.5-0.13 17 0.1 16.15 0.1L16.15 0.1ZM37.7 0.1L37.3 0.1Q36.2 0.1 35.77-0.2 35.35-0.5 35.35-1L35.35-1 35.35-25.15Q35.35-25.7 35.77-25.98 36.2-26.25 37.3-26.25L37.3-26.25 37.7-26.25Q38.8-26.25 39.22-25.98 39.65-25.7 39.65-25.15L39.65-25.15 39.65-1Q39.65-0.5 39.22-0.2 38.8 0.1 37.7 0.1L37.7 0.1ZM37.5-29.75L37.5-29.75Q36.3-29.75 35.8-30.05 35.3-30.35 35.3-30.85L35.3-30.85 35.3-33.85Q35.3-34.35 35.8-34.65 36.3-34.95 37.5-34.95L37.5-34.95Q38.7-34.95 39.2-34.68 39.7-34.4 39.7-33.85L39.7-33.85 39.7-30.85Q39.7-30.35 39.2-30.05 38.7-29.75 37.5-29.75ZM55.49 0.3L55.49 0.3Q53.49 0.3 52.17-0.45 50.84-1.2 50.17-2.68 49.49-4.15 49.49-6.3L49.49-6.3 49.49-22.55 46.99-22.55Q45.99-22.55 45.99-24.05L45.99-24.05 45.99-24.65Q45.99-26.15 46.99-26.15L46.99-26.15 49.49-26.15 50.09-31.4Q50.2-31.95 50.57-32.23 50.95-32.5 51.64-32.5L51.64-32.5 52.05-32.5Q53.05-32.5 53.42-32.23 53.8-31.95 53.8-31.4L53.8-31.4 53.8-26.15 58.05-26.15Q59.05-26.15 59.05-24.65L59.05-24.65 59.05-24.05Q59.05-22.55 58.05-22.55L58.05-22.55 53.8-22.55 53.8-6.3Q53.8-4.7 54.32-4.05 54.84-3.4 56.14-3.4L56.14-3.4Q57.3-3.4 57.8-3.65 58.3-3.9 58.64-3.9L58.64-3.9Q58.89-3.9 59.07-3.58 59.24-3.25 59.32-2.8 59.39-2.35 59.42-1.95 59.45-1.55 59.45-1.4L59.45-1.4Q59.45-0.9 58.77-0.5 58.09-0.1 57.17 0.1 56.24 0.3 55.49 0.3ZM72.19 0.3L72.19 0.3Q68.54 0.3 66.09-1.53 63.64-3.35 63.64-7.2L63.64-7.2Q63.64-9.75 64.49-11.5 65.34-13.25 67.27-14.3 69.19-15.35 72.37-15.83 75.54-16.3 80.14-16.3L80.14-16.3 80.14-18.65Q80.14-19.8 79.64-20.75 79.14-21.7 77.97-22.28 76.79-22.85 74.74-22.85L74.74-22.85Q72.49-22.85 70.77-22.35 69.04-21.85 67.97-21.35 66.89-20.85 66.54-20.85L66.54-20.85Q66.29-20.85 66.07-21.1 65.84-21.35 65.64-21.78 65.44-22.2 65.32-22.65 65.19-23.1 65.19-23.45L65.19-23.45Q65.19-23.85 66.04-24.35 66.89-24.85 68.32-25.33 69.74-25.8 71.47-26.13 73.19-26.45 74.94-26.45L74.94-26.45Q77.19-26.45 78.97-25.93 80.74-25.4 81.94-24.38 83.14-23.35 83.79-21.9 84.44-20.45 84.44-18.6L84.44-18.6 84.44-7.5Q84.44-5.45 84.57-4.15 84.69-2.85 84.82-2.13 84.94-1.4 84.94-1.05L84.94-1.05Q84.94-0.8 84.64-0.6 84.34-0.4 83.89-0.28 83.44-0.15 82.94-0.08 82.44 0 82.04 0L82.04 0Q81.59 0 81.34-0.33 81.09-0.65 80.89-1.43 80.69-2.2 80.44-3.45L80.44-3.45Q79.54-2.4 78.32-1.55 77.09-0.7 75.57-0.2 74.04 0.3 72.19 0.3ZM72.39-3.35L72.39-3.35Q74.19-3.35 75.57-3.85 76.94-4.35 78.07-5.13 79.19-5.9 80.14-6.8L80.14-6.8 80.14-12.7Q76.44-12.7 74.09-12.43 71.74-12.15 70.44-11.55 69.14-10.95 68.64-9.93 68.14-8.9 68.14-7.45L68.14-7.45Q68.14-5.45 69.22-4.4 70.29-3.35 72.39-3.35ZM95.74 0.1L95.34 0.1Q94.24 0.1 93.77-0.2 93.29-0.5 93.29-1L93.29-1 93.29-33.5Q93.29-35 94.84-35L94.84-35 110.19-35Q111.14-35 111.14-33.5L111.14-33.5 111.14-32.7Q111.14-31.2 110.19-31.2L110.19-31.2 97.79-31.2 97.79-18.55 109.39-18.55Q110.39-18.55 110.39-17.05L110.39-17.05 110.39-16.25Q110.39-14.75 109.39-14.75L109.39-14.75 97.79-14.75 97.79-1Q97.79-0.5 97.34-0.2 96.89 0.1 95.74 0.1L95.74 0.1ZM126.44 0.3L126.44 0.3Q120.79 0.3 117.81-3.1 114.84-6.5 114.84-12.95L114.84-12.95Q114.84-19.45 117.84-22.95 120.84-26.45 126.44-26.45L126.44-26.45Q131.94-26.45 134.86-22.98 137.79-19.5 137.79-12.95L137.79-12.95Q137.79-6.45 134.91-3.08 132.04 0.3 126.44 0.3ZM126.29-3.3L126.29-3.3Q129.94-3.3 131.66-5.68 133.39-8.05 133.39-13.05L133.39-13.05Q133.39-18.05 131.66-20.45 129.94-22.85 126.29-22.85L126.29-22.85Q122.64-22.85 120.94-20.48 119.24-18.1 119.24-13.05L119.24-13.05Q119.24-8.05 120.94-5.68 122.64-3.3 126.29-3.3ZM147.24 0.1L147.04 0.1Q145.99 0.1 145.51-0.2 145.04-0.5 145.04-1L145.04-1 145.04-18.65Q145.04-20.7 144.91-22 144.79-23.3 144.66-24.05 144.54-24.8 144.54-25.1L144.54-25.1Q144.54-25.35 144.84-25.55 145.14-25.75 145.59-25.88 146.04-26 146.54-26.05 147.04-26.1 147.44-26.1L147.44-26.1Q147.89-26.1 148.16-25.78 148.44-25.45 148.66-24.7 148.89-23.95 149.09-22.7L149.09-22.7Q149.94-24 151.01-24.83 152.09-25.65 153.34-26.05 154.59-26.45 156.04-26.45L156.04-26.45Q156.89-26.45 157.31-26.05 157.74-25.65 157.74-24.85L157.74-24.85Q157.74-24.3 157.66-23.78 157.59-23.25 157.44-22.85 157.29-22.45 157.11-22.2 156.94-21.95 156.69-21.95L156.69-21.95Q156.34-21.95 155.81-22.15 155.29-22.35 154.14-22.35L154.14-22.35Q152.44-22.35 151.11-21.4 149.79-20.45 149.34-18.8L149.34-18.8 149.34-1Q149.34-0.5 148.84-0.2 148.34 0.1 147.24 0.1L147.24 0.1ZM170.33 0.3L170.33 0.3Q166.63 0.3 164.51-1.83 162.38-3.95 162.38-7.65L162.38-7.65 162.38-25.15Q162.38-25.7 162.81-25.98 163.23-26.25 164.33-26.25L164.33-26.25 164.73-26.25Q165.83-26.25 166.26-25.98 166.68-25.7 166.68-25.15L166.68-25.15 166.68-8.05Q166.68-5.75 167.91-4.55 169.13-3.35 171.53-3.35L171.53-3.35Q172.78-3.35 173.96-3.78 175.13-4.2 176.16-5 177.18-5.8 177.88-6.85L177.88-6.85 177.88-25.15Q177.88-25.7 178.31-25.98 178.73-26.25 179.83-26.25L179.83-26.25 180.23-26.25Q181.33-26.25 181.76-25.98 182.18-25.7 182.18-25.15L182.18-25.15 182.18-7.5Q182.18-5.45 182.31-4.15 182.43-2.85 182.56-2.13 182.68-1.4 182.68-1.05L182.68-1.05Q182.68-0.8 182.38-0.6 182.08-0.4 181.63-0.28 181.18-0.15 180.68-0.08 180.18 0 179.78 0L179.78 0Q179.33 0 179.08-0.33 178.83-0.65 178.63-1.43 178.43-2.2 178.18-3.45L178.18-3.45Q177.18-2.3 175.88-1.45 174.58-0.6 173.18-0.15 171.78 0.3 170.33 0.3ZM193.53 0.1L193.13 0.1Q192.03 0.1 191.61-0.2 191.18-0.5 191.18-1L191.18-1 191.18-18.65Q191.18-20.7 191.06-22 190.93-23.3 190.81-24.05 190.68-24.8 190.68-25.1L190.68-25.1Q190.68-25.35 190.98-25.55 191.28-25.75 191.73-25.88 192.18-26 192.68-26.05 193.18-26.1 193.58-26.1L193.58-26.1Q194.03-26.1 194.28-25.78 194.53-25.45 194.73-24.73 194.93-24 195.18-22.7L195.18-22.7Q196.18-23.9 197.38-24.73 198.58-25.55 199.93-26 201.28-26.45 202.63-26.45L202.63-26.45Q204.33-26.45 205.71-25.98 207.08-25.5 208.13-24.6 209.18-23.7 209.83-22.3L209.83-22.3Q210.83-23.6 212.11-24.53 213.38-25.45 214.81-25.95 216.23-26.45 217.63-26.45L217.63-26.45Q220.08-26.45 221.86-25.48 223.63-24.5 224.58-22.7 225.53-20.9 225.53-18.35L225.53-18.35 225.53-1Q225.53-0.5 225.11-0.2 224.68 0.1 223.58 0.1L223.58 0.1 223.18 0.1Q222.08 0.1 221.66-0.2 221.23-0.5 221.23-1L221.23-1 221.23-17.95Q221.23-20.35 220.03-21.58 218.83-22.8 216.43-22.8L216.43-22.8Q215.58-22.8 214.73-22.55 213.88-22.3 213.08-21.8 212.28-21.3 211.53-20.6 210.78-19.9 210.18-18.95L210.18-18.95 210.13-20.65Q210.43-20.1 210.48-19.5 210.53-18.9 210.53-18.35L210.53-18.35 210.53-1Q210.53-0.5 210.11-0.2 209.68 0.1 208.58 0.1L208.58 0.1 208.18 0.1Q207.08 0.1 206.66-0.2 206.23-0.5 206.23-1L206.23-1 206.23-17.95Q206.23-20.35 205.03-21.58 203.83-22.8 201.43-22.8L201.43-22.8Q200.28-22.8 199.18-22.38 198.08-21.95 197.13-21.18 196.18-20.4 195.48-19.35L195.48-19.35 195.48-1Q195.48-0.5 195.06-0.2 194.63 0.1 193.53 0.1L193.53 0.1Z" opacity="1" transform="matrix(1,0,0,1,0,0)" fill="#374f7d" class="wordmark-text-0" data-fill-palette-color="primary" id="text-0"></path></svg></g></svg></g><g transform="matrix(1,0,0,1,0,34.63916496864576)"><svg viewBox="0 0 192 15.746949841843653" height="15.746949841843653" width="192"><g transform="matrix(1,0,0,1,0,0)"><svg width="192" viewBox="1.7 -35.7 442.55 36.300000000000004" height="15.746949841843653" data-palette-color="#97978d"><path d="M10.5 0.6L10.5 0.6Q7.45 0.6 5.25-0.73 3.05-2.05 1.7-4.55L1.7-4.55 4.35-6.4Q5.5-4.45 6.93-3.55 8.35-2.65 10.2-2.65L10.2-2.65Q12.9-2.65 14.25-4.35 15.6-6.05 15.6-9.85L15.6-9.85 15.6-32.85 19.3-32.85 19.3-9.5Q19.3-6.7 18.4-4.4 17.5-2.1 15.58-0.75 13.65 0.6 10.5 0.6ZM37.25 0.6L37.25 0.6Q34.3 0.6 31.75-0.9 29.2-2.4 27.65-5.23 26.1-8.05 26.1-12.1L26.1-12.1Q26.1-16.1 27.65-18.98 29.2-21.85 31.75-23.35 34.3-24.85 37.25-24.85L37.25-24.85Q40.2-24.85 42.72-23.35 45.25-21.85 46.82-18.98 48.4-16.1 48.4-12.1L48.4-12.1Q48.4-8.05 46.82-5.23 45.25-2.4 42.72-0.9 40.2 0.6 37.25 0.6ZM37.25-2.45L37.25-2.45Q39.45-2.45 41.12-3.65 42.8-4.85 43.72-7.03 44.65-9.2 44.65-12.1L44.65-12.1Q44.65-14.95 43.72-17.15 42.8-19.35 41.12-20.58 39.45-21.8 37.25-21.8L37.25-21.8Q35.1-21.8 33.42-20.58 31.75-19.35 30.82-17.15 29.9-14.95 29.9-12.1L29.9-12.1Q29.9-9.2 30.82-7.03 31.75-4.85 33.42-3.65 35.1-2.45 37.25-2.45ZM58.6 0L55 0 55-24.25 58.6-24.25 58.6 0ZM56.85-29.45L56.85-29.45Q55.8-29.45 55.07-30.15 54.35-30.85 54.35-32L54.35-32Q54.35-33.05 55.07-33.75 55.8-34.45 56.85-34.45L56.85-34.45Q57.95-34.45 58.65-33.75 59.35-33.05 59.35-32L59.35-32Q59.35-30.85 58.65-30.15 57.95-29.45 56.85-29.45ZM70.69 0L67.09 0 67.09-24.25 70.09-24.25 70.39-20.65 70.54-20.65Q72.29-22.45 74.27-23.65 76.24-24.85 78.69-24.85L78.69-24.85Q82.54-24.85 84.32-22.45 86.09-20.05 86.09-15.4L86.09-15.4 86.09 0 82.44 0 82.44-14.95Q82.44-18.45 81.32-20.05 80.19-21.65 77.64-21.65L77.64-21.65Q75.69-21.65 74.17-20.68 72.64-19.7 70.69-17.75L70.69-17.75 70.69 0ZM111.59 0.6L111.59 0.6Q107.79 0.6 106.34-1.6 104.89-3.8 104.89-7.3L104.89-7.3 104.89-21.25 101.24-21.25 101.24-24 105.04-24.25 105.49-31.1 108.54-31.1 108.54-24.25 115.19-24.25 115.19-21.25 108.54-21.25 108.54-7.2Q108.54-4.95 109.36-3.68 110.19-2.4 112.39-2.4L112.39-2.4Q113.04-2.4 113.81-2.6 114.59-2.8 115.19-3.05L115.19-3.05 115.94-0.3Q114.94 0.05 113.76 0.33 112.59 0.6 111.59 0.6ZM124.39 0L120.79 0 120.79-35.7 124.39-35.7 124.39-25.8 124.29-20.7Q126.04-22.45 127.99-23.65 129.94-24.85 132.39-24.85L132.39-24.85Q136.24-24.85 138.01-22.45 139.79-20.05 139.79-15.4L139.79-15.4 139.79 0 136.14 0 136.14-14.95Q136.14-18.45 135.01-20.05 133.89-21.65 131.34-21.65L131.34-21.65Q129.39-21.65 127.86-20.68 126.34-19.7 124.39-17.75L124.39-17.75 124.39 0ZM157.38 0.6L157.38 0.6Q154.18 0.6 151.58-0.93 148.98-2.45 147.43-5.28 145.88-8.1 145.88-12.1L145.88-12.1Q145.88-16 147.43-18.88 148.98-21.75 151.46-23.3 153.93-24.85 156.73-24.85L156.73-24.85Q159.73-24.85 161.88-23.45 164.03-22.05 165.16-19.53 166.28-17 166.28-13.5L166.28-13.5Q166.28-12.95 166.23-12.35 166.18-11.75 166.08-11.3L166.08-11.3 148.73-11.3 148.68-13.95 163.03-13.95Q163.03-17.85 161.38-19.88 159.73-21.9 156.78-21.9L156.78-21.9Q154.98-21.9 153.28-20.88 151.58-19.85 150.48-17.68 149.38-15.5 149.38-12.1L149.38-12.1Q149.38-8.85 150.53-6.7 151.68-4.55 153.61-3.45 155.53-2.35 157.83-2.35L157.83-2.35Q159.63-2.35 161.13-2.9 162.63-3.45 163.98-4.3L163.98-4.3 165.33-1.9Q163.78-0.9 161.86-0.15 159.93 0.6 157.38 0.6ZM191.78 0.6L191.78 0.6Q188.58 0.6 186.03-0.9 183.48-2.4 181.98-5.23 180.48-8.05 180.48-12.1L180.48-12.1Q180.48-16.1 182.1-18.98 183.73-21.85 186.33-23.35 188.93-24.85 192.03-24.85L192.03-24.85Q194.43-24.85 196.13-23.98 197.83-23.1 199.08-21.95L199.08-21.95 197.18-19.55Q196.13-20.55 194.9-21.18 193.68-21.8 192.18-21.8L192.18-21.8Q189.88-21.8 188.1-20.58 186.33-19.35 185.3-17.15 184.28-14.95 184.28-12.1L184.28-12.1Q184.28-9.2 185.25-7.03 186.23-4.85 187.98-3.65 189.73-2.45 192.08-2.45L192.08-2.45Q193.83-2.45 195.33-3.18 196.83-3.9 197.98-4.95L197.98-4.95 199.58-2.5Q197.98-1.05 195.98-0.23 193.98 0.6 191.78 0.6ZM214.33 0.6L214.33 0.6Q211.38 0.6 208.83-0.9 206.28-2.4 204.73-5.23 203.18-8.05 203.18-12.1L203.18-12.1Q203.18-16.1 204.73-18.98 206.28-21.85 208.83-23.35 211.38-24.85 214.33-24.85L214.33-24.85Q217.28-24.85 219.8-23.35 222.33-21.85 223.9-18.98 225.48-16.1 225.48-12.1L225.48-12.1Q225.48-8.05 223.9-5.23 222.33-2.4 219.8-0.9 217.28 0.6 214.33 0.6ZM214.33-2.45L214.33-2.45Q216.53-2.45 218.2-3.65 219.88-4.85 220.8-7.03 221.73-9.2 221.73-12.1L221.73-12.1Q221.73-14.95 220.8-17.15 219.88-19.35 218.2-20.58 216.53-21.8 214.33-21.8L214.33-21.8Q212.18-21.8 210.5-20.58 208.83-19.35 207.9-17.15 206.98-14.95 206.98-12.1L206.98-12.1Q206.98-9.2 207.9-7.03 208.83-4.85 210.5-3.65 212.18-2.45 214.33-2.45ZM235.67 0L232.07 0 232.07-24.25 235.07-24.25 235.37-20.65 235.52-20.65Q237.27-22.45 239.25-23.65 241.22-24.85 243.67-24.85L243.67-24.85Q247.52-24.85 249.3-22.45 251.07-20.05 251.07-15.4L251.07-15.4 251.07 0 247.42 0 247.42-14.95Q247.42-18.45 246.3-20.05 245.17-21.65 242.62-21.65L242.62-21.65Q240.67-21.65 239.15-20.68 237.62-19.7 235.67-17.75L235.67-17.75 235.67 0ZM268.62 0L264.42 0 255.57-24.25 259.32-24.25 264.12-10.1Q264.67-8.35 265.27-6.55 265.87-4.75 266.42-3L266.42-3 266.62-3Q267.17-4.75 267.77-6.55 268.37-8.35 268.92-10.1L268.92-10.1 273.72-24.25 277.32-24.25 268.62 0ZM291.77 0.6L291.77 0.6Q288.57 0.6 285.97-0.93 283.37-2.45 281.82-5.28 280.27-8.1 280.27-12.1L280.27-12.1Q280.27-16 281.82-18.88 283.37-21.75 285.84-23.3 288.32-24.85 291.12-24.85L291.12-24.85Q294.12-24.85 296.27-23.45 298.42-22.05 299.54-19.53 300.67-17 300.67-13.5L300.67-13.5Q300.67-12.95 300.62-12.35 300.57-11.75 300.47-11.3L300.47-11.3 283.12-11.3 283.07-13.95 297.42-13.95Q297.42-17.85 295.77-19.88 294.12-21.9 291.17-21.9L291.17-21.9Q289.37-21.9 287.67-20.88 285.97-19.85 284.87-17.68 283.77-15.5 283.77-12.1L283.77-12.1Q283.77-8.85 284.92-6.7 286.07-4.55 287.99-3.45 289.92-2.35 292.22-2.35L292.22-2.35Q294.02-2.35 295.52-2.9 297.02-3.45 298.37-4.3L298.37-4.3 299.72-1.9Q298.17-0.9 296.24-0.15 294.32 0.6 291.77 0.6ZM310.37 0L306.77 0 306.77-24.25 309.77-24.25 310.07-19.8 310.22-19.8Q311.47-22.1 313.24-23.48 315.02-24.85 317.12-24.85L317.12-24.85Q317.87-24.85 318.47-24.73 319.07-24.6 319.62-24.35L319.62-24.35 318.92-21.15Q318.32-21.35 317.84-21.45 317.37-21.55 316.62-21.55L316.62-21.55Q315.07-21.55 313.37-20.28 311.67-19 310.37-15.8L310.37-15.8 310.37 0ZM329.96 0.6L329.96 0.6Q327.36 0.6 325.01-0.38 322.66-1.35 320.96-2.75L320.96-2.75 322.81-5.2Q324.36-3.95 326.09-3.1 327.81-2.25 330.11-2.25L330.11-2.25Q332.61-2.25 333.86-3.45 335.11-4.65 335.11-6.3L335.11-6.3Q335.11-7.6 334.26-8.47 333.41-9.35 332.14-9.98 330.86-10.6 329.46-11.1L329.46-11.1Q327.76-11.7 326.06-12.55 324.36-13.4 323.24-14.7 322.11-16 322.11-18.05L322.11-18.05Q322.11-20.9 324.29-22.88 326.46-24.85 330.36-24.85L330.36-24.85Q332.56-24.85 334.46-24.05 336.36-23.25 337.71-22.15L337.71-22.15 335.96-19.8Q334.71-20.7 333.39-21.33 332.06-21.95 330.36-21.95L330.36-21.95Q327.96-21.95 326.81-20.83 325.66-19.7 325.66-18.25L325.66-18.25Q325.66-17.05 326.44-16.28 327.21-15.5 328.46-14.95 329.71-14.4 331.11-13.85L331.11-13.85Q332.91-13.2 334.64-12.38 336.36-11.55 337.51-10.2 338.66-8.85 338.66-6.5L338.66-6.5Q338.66-4.6 337.66-2.98 336.66-1.35 334.71-0.38 332.76 0.6 329.96 0.6ZM350.06 0.6L350.06 0.6Q348.06 0.6 346.46-0.2 344.86-1 343.91-2.53 342.96-4.05 342.96-6.2L342.96-6.2Q342.96-10.2 346.59-12.33 350.21-14.45 358.06-15.3L358.06-15.3Q358.06-16.9 357.64-18.43 357.21-19.95 356.09-20.88 354.96-21.8 352.86-21.8L352.86-21.8Q350.66-21.8 348.79-20.95 346.91-20.1 345.51-19.15L345.51-19.15 344.06-21.65Q345.11-22.35 346.56-23.1 348.01-23.85 349.76-24.35 351.51-24.85 353.46-24.85L353.46-24.85Q356.36-24.85 358.19-23.6 360.01-22.35 360.84-20.15 361.66-17.95 361.66-15L361.66-15 361.66 0 358.66 0 358.36-2.95 358.21-2.95Q356.46-1.5 354.41-0.45 352.36 0.6 350.06 0.6ZM351.01-2.35L351.01-2.35Q352.86-2.35 354.51-3.23 356.16-4.1 358.06-5.75L358.06-5.75 358.06-12.85Q353.76-12.35 351.26-11.48 348.76-10.6 347.66-9.35 346.56-8.1 346.56-6.45L346.56-6.45Q346.56-4.3 347.89-3.33 349.21-2.35 351.01-2.35ZM376.96 0.6L376.96 0.6Q373.16 0.6 371.71-1.6 370.26-3.8 370.26-7.3L370.26-7.3 370.26-21.25 366.61-21.25 366.61-24 370.41-24.25 370.86-31.1 373.91-31.1 373.91-24.25 380.56-24.25 380.56-21.25 373.91-21.25 373.91-7.2Q373.91-4.95 374.73-3.68 375.56-2.4 377.76-2.4L377.76-2.4Q378.41-2.4 379.18-2.6 379.96-2.8 380.56-3.05L380.56-3.05 381.31-0.3Q380.31 0.05 379.13 0.33 377.96 0.6 376.96 0.6ZM389.76 0L386.16 0 386.16-24.25 389.76-24.25 389.76 0ZM388.01-29.45L388.01-29.45Q386.96-29.45 386.23-30.15 385.51-30.85 385.51-32L385.51-32Q385.51-33.05 386.23-33.75 386.96-34.45 388.01-34.45L388.01-34.45Q389.11-34.45 389.81-33.75 390.51-33.05 390.51-32L390.51-32Q390.51-30.85 389.81-30.15 389.11-29.45 388.01-29.45ZM407.5 0.6L407.5 0.6Q404.55 0.6 402-0.9 399.45-2.4 397.9-5.23 396.35-8.05 396.35-12.1L396.35-12.1Q396.35-16.1 397.9-18.98 399.45-21.85 402-23.35 404.55-24.85 407.5-24.85L407.5-24.85Q410.45-24.85 412.98-23.35 415.5-21.85 417.08-18.98 418.65-16.1 418.65-12.1L418.65-12.1Q418.65-8.05 417.08-5.23 415.5-2.4 412.98-0.9 410.45 0.6 407.5 0.6ZM407.5-2.45L407.5-2.45Q409.7-2.45 411.38-3.65 413.05-4.85 413.98-7.03 414.9-9.2 414.9-12.1L414.9-12.1Q414.9-14.95 413.98-17.15 413.05-19.35 411.38-20.58 409.7-21.8 407.5-21.8L407.5-21.8Q405.35-21.8 403.68-20.58 402-19.35 401.08-17.15 400.15-14.95 400.15-12.1L400.15-12.1Q400.15-9.2 401.08-7.03 402-4.85 403.68-3.65 405.35-2.45 407.5-2.45ZM428.85 0L425.25 0 425.25-24.25 428.25-24.25 428.55-20.65 428.7-20.65Q430.45-22.45 432.43-23.65 434.4-24.85 436.85-24.85L436.85-24.85Q440.7-24.85 442.48-22.45 444.25-20.05 444.25-15.4L444.25-15.4 444.25 0 440.6 0 440.6-14.95Q440.6-18.45 439.48-20.05 438.35-21.65 435.8-21.65L435.8-21.65Q433.85-21.65 432.33-20.68 430.8-19.7 428.85-17.75L428.85-17.75 428.85 0Z" opacity="1" transform="matrix(1,0,0,1,0,0)" fill="#97978d" class="slogan-text-1" data-fill-palette-color="secondary" id="text-1"></path></svg></g></svg></g></svg></g></svg></g><g transform="matrix(1,0,0,1,49.999969965173776,0)"><svg viewBox="0 0 92.00006006965245 68.93727456141542" height="68.93727456141542" width="92.00006006965245"><g><svg xmlns="http://www.w3.org/2000/svg" data-name="Layer 1" viewBox="0.8299974186876451 13.152094201510828 98.34000260379167 73.68790579848917" x="0" y="0" height="68.93727456141542" width="92.00006006965245" class="icon-icon-0" data-fill-palette-color="accent" id="icon-0"><path d="M38.55 86.84A3.77 3.77 0 1 1 42.32 83.07 3.77 3.77 0 0 1 38.55 86.84M53.77 83.07A3.77 3.77 0 1 0 50 86.84 3.77 3.77 0 0 0 53.77 83.07M65.22 83.07A3.77 3.77 0 1 0 61.45 86.84 3.77 3.77 0 0 0 65.22 83.07M89.06 48.65A11.18 11.18 0 1 0 76.5 48.65 16.4 16.4 0 0 0 70.5 52.94 22.15 22.15 0 0 0 58.47 40.69 15.07 15.07 0 1 0 41.54 40.69 22.15 22.15 0 0 0 29.48 52.94 16.4 16.4 0 0 0 23.48 48.65 11.18 11.18 0 1 0 10.92 48.65 16.39 16.39 0 0 0 0.83 63.79V69.21A2.3 2.3 0 0 0 3.13 71.51H96.87A2.3 2.3 0 0 0 99.17 69.21V63.79A16.39 16.39 0 0 0 89.06 48.65" fill="#24a7d8" data-fill-palette-color="accent"></path></svg></g></svg></g><g></g></svg></g></svg></g></svg></g></svg></g><defs></defs></svg><rect width="320" height="360" fill="none" stroke="none" visibility="hidden"></rect></g></svg></g></svg>